<?xml version="1.0" encoding="UTF-8"?>
<svg width="602px" height="602px" viewBox="0 0 602 602" version="1.1" xmlns="http://www.w3.org/2000/svg" xmlns:xlink="http://www.w3.org/1999/xlink">
    <!-- Generator: Sketch 51.2 (57519) - http://www.bohemiancoding.com/sketch -->
    <title>connections</title>
    <desc>Created with Sketch.</desc>
    <defs></defs>
    <g id="Page-1" stroke="none" stroke-width="1" fill="none" fill-rule="evenodd">
        <g id="MYCELINET" transform="translate(-177.000000, -177.000000)" stroke-width="2">
            <g id="connections" transform="translate(189.000000, 180.000000)">
                <g id="people" transform="translate(224.000000, 0.000000)" stroke="#979797">
                    <g id="Group" transform="translate(92.967742, 27.529412)">
                        <path d="M27.4677419,11.6470588 C27.4677419,19.0588235 23.3201129,25.4117647 16.9032258,25.4117647 C10.4863387,25.4117647 6.33870968,19.0588235 6.33870968,11.6470588 C6.33870968,4.23529412 8.4516129,0 16.9032258,0 C25.3548387,0 27.4677419,4.23529412 27.4677419,11.6470588 Z" id="Shape"></path>
                        <path d="M0,29.6470588 L10.5645161,23.2941176" id="Shape"></path>
                        <path d="M23.2419355,23.2941176 L38.0322581,31.7647059 C38.0322581,31.7647059 38.0322581,32.4931765 38.0322581,36 C38.0322581,39.5068235 35.9193548,42.3529412 33.8064516,42.3529412 L21.1290323,42.3529412" id="Shape"></path>
                    </g>
                    <g id="Group" transform="translate(0.000000, 27.529412)">
                        <path d="M10.5645161,11.6470588 C10.5645161,19.0588235 14.7121452,25.4117647 21.1290323,25.4117647 C27.5459194,25.4117647 31.6935484,19.0588235 31.6935484,11.6470588 C31.6935484,4.23529412 29.5806452,0 21.1290323,0 C12.6774194,0 10.5645161,4.23529412 10.5645161,11.6470588 Z" id="Shape"></path>
                        <path d="M38.0322581,29.6470588 L27.4677419,23.2941176" id="Shape"></path>
                        <path d="M14.7903226,23.2941176 L0,31.7647059 C0,31.7647059 0,32.4931765 0,36 C0,39.5068235 2.11290323,42.3529412 4.22580645,42.3529412 L16.9032258,42.3529412" id="Shape"></path>
                    </g>
                    <g id="Group" transform="translate(19.016129, 0.000000)">
                        <g id="Shape">
                            <path d="M0,108 L0,88.9411765 C0,67.7647059 14.7903226,69.8823529 29.5806452,61.4117647"></path>
                            <path d="M63.3870968,61.4117647 C78.1774194,69.8823529 92.9677419,67.7647059 92.9677419,88.9411765 L92.9677419,108"></path>
                            <polygon points="54.9354839 69.8823529 46.483871 65.6470588 38.0322581 69.8823529 29.5806452 61.4117647 33.8064516 55.0588235 46.483871 57.1764706 59.1612903 55.0588235 63.3870968 61.4117647"></polygon>
                            <path d="M57.0483871,46.5882353 L57.0483871,55.0588235"></path>
                            <path d="M35.9193548,55.0588235 L35.9193548,46.5882353"></path>
                            <path d="M44.3709677,84.7058824 L48.5967742,84.7058824"></path>
                            <path d="M44.3709677,76.2352941 L48.5967742,76.2352941"></path>
                            <path d="M65.5,19.0588235 C65.5,6.19411765 59.3197581,0 46.483871,0 C33.6479839,0 27.4677419,6.19411765 27.4677419,19.0588235 L27.4677419,27.5294118 C29.5806452,42.3529412 35.9193548,46.5882353 35.9193548,46.5882353 C40.1451613,48.7058824 46.483871,48.7058824 46.483871,48.7058824 C46.483871,48.7058824 52.8225806,48.7058824 57.0483871,46.5882353 C57.0483871,46.5882353 63.3870968,42.3529412 65.5,27.5294118 L65.5,19.0588235 Z"></path>
                            <polyline points="27.4677419 19.0588235 35.9193548 14.8235294 46.483871 19.0588235 57.0483871 23.2941176 65.5 19.0588235"></polyline>
                        </g>
                        <path d="M16.9032258,108 L16.9032258,91.0588235" id="Shape"></path>
                        <path d="M76.0645161,108 L76.0645161,91.0588235" id="Shape"></path>
                    </g>
                </g>
                <g id="technology" transform="translate(524.097758, 428.000000) rotate(6.000000) translate(-524.097758, -428.000000) translate(481.597758, 355.000000)" stroke="#979797">
                    <path d="M85,134.225806 L85,11.7741935 C85,5.27012903 79.7158333,0 73.1944444,0 L11.8055556,0 C5.28416667,0 0,5.27012903 0,11.7741935 L0,134.225806 C0,140.729871 5.28416667,146 11.8055556,146 L73.1944444,146 C79.7158333,146 85,140.729871 85,134.225806 Z" id="Shape"></path>
                    <rect id="Rectangle-path" x="9" y="23" width="67" height="103"></rect>
                    <path d="M37,137 L46,137" id="Shape"></path>
                    <path d="M32,12 L27,12" id="Shape"></path>
                    <path d="M36,12 L60,12" id="Shape"></path>
                    <path d="M21,113 L26,113" id="Shape"></path>
                    <path d="M31,113 L36,113" id="Shape"></path>
                    <path d="M39,113 L44,113" id="Shape"></path>
                    <path d="M49,113 L54,113" id="Shape"></path>
                    <path d="M58,113 L63,113" id="Shape"></path>
                    <path d="M21,38 L26,38" id="Shape"></path>
                    <path d="M31,38 L36,38" id="Shape"></path>
                    <path d="M39,38 L44,38" id="Shape"></path>
                    <path d="M49,38 L54,38" id="Shape"></path>
                    <path d="M58,38 L63,38" id="Shape"></path>
                    <path d="M21,49 L26,49" id="Shape"></path>
                    <path d="M31,49 L36,49" id="Shape"></path>
                    <path d="M39,49 L44,49" id="Shape"></path>
                    <path d="M49,49 L54,49" id="Shape"></path>
                    <path d="M58,49 L63,49" id="Shape"></path>
                    <path d="M21,61 L26,61" id="Shape"></path>
                    <path d="M31,61 L36,61" id="Shape"></path>
                    <path d="M39,61 L44,61" id="Shape"></path>
                    <path d="M49,61 L54,61" id="Shape"></path>
                    <path d="M58,61 L63,61" id="Shape"></path>
                    <path d="M21,72 L26,72" id="Shape"></path>
                    <path d="M31,72 L36,72" id="Shape"></path>
                    <path d="M39,72 L44,72" id="Shape"></path>
                    <path d="M49,72 L54,72" id="Shape"></path>
                    <path d="M58,72 L63,72" id="Shape"></path>
                    <path d="M21,85 L26,85" id="Shape"></path>
                    <path d="M31,85 L36,85" id="Shape"></path>
                    <path d="M39,85 L44,85" id="Shape"></path>
                </g>
                <g id="link-nature-people" transform="translate(39.000000, 59.000000)" fill-rule="nonzero" stroke="#8BC53F">
                    <path d="M175.413599,0.1688855 C115.246962,20.7475117 69.1412054,56.3561304 37.0963294,106.994742 C5.05145349,157.633353 -5.8505371,217.325766 4.39035767,286.07198" id="Path-2"></path>
                </g>
                <g id="link-technology-people" transform="translate(370.000000, 60.000000)" fill-rule="nonzero" stroke="#8BC53F">
                    <path d="M168.654436,0.827900058 C110.701593,24.303872 66.2824689,59.8970655 35.3970635,107.60748 C4.51165804,155.317895 -6.1013937,214.175913 3.55790822,284.181534" id="Path-2" transform="translate(84.380261, 142.504717) scale(-1, 1) translate(-84.380261, -142.504717) "></path>
                </g>
                <g id="link-nature-technology" transform="translate(105.000000, 320.000000)" fill-rule="nonzero" stroke="#8BC53F">
                    <path d="M273.095366,3.64558727 C273.095366,3.64558727 177.332103,24.7135038 121.467769,121.473369 C88.457792,178.648327 80.2515603,242.367129 96.849074,312.629775" id="Path-2" transform="translate(180.807363, 158.137681) scale(-1, 1) rotate(-120.000000) translate(-180.807363, -158.137681) "></path>
                </g>
                <g id="forest" transform="translate(0.000000, 355.000000)" stroke="#A0A0A0" stroke-linejoin="round">
                    <g id="Group" transform="translate(72.000000, 0.000000)">
                        <path d="M6.84,100.45283 L6.84,121" id="Shape"></path>
                        <path d="M15.96,93.6037736 L15.96,121" id="Shape"></path>
                        <polyline id="Shape" points="0 11.4150943 11.4 0 41.04 29.6792453 27.36 29.6792453 47.88 50.2264151 31.92 50.2264151 54.72 73.0566038 36.48 73.0566038 57 93.6037736 27.36 93.6037736"></polyline>
                    </g>
                    <g id="Group">
                        <path d="M41.4,100.45283 L41.4,121" id="Shape"></path>
                        <path d="M50.6,93.6037736 L50.6,121" id="Shape"></path>
                        <polygon id="Shape" points="62.1 29.6792453 82.8 50.2264151 66.7 50.2264151 89.7 73.0566038 71.3 73.0566038 92 93.6037736 0 93.6037736 20.7 73.0566038 2.3 73.0566038 25.3 50.2264151 9.2 50.2264151 29.9 29.6792453 16.1 29.6792453 46 0 75.9 29.6792453"></polygon>
                    </g>
                    <path d="M46,48 L46,52" id="Shape"></path>
                    <path d="M46,70 L46,74" id="Shape"></path>
                    <path d="M46,28 L46,32" id="Shape"></path>
                </g>
            </g>
        </g>
    </g>
</svg>