<svg xmlns="http://www.w3.org/2000/svg" viewBox="0 0 602 602">
  <g fill="none" fill-rule="evenodd" stroke-width="2">
    <g stroke="#979797" id="people">
      <path d="M356.435 42.176c0 7.412-4.147 13.765-10.564 13.765s-10.565-6.353-10.565-13.765c0-7.411 2.113-11.647 10.565-11.647s10.564 4.236 10.564 11.647z"/>
      <path d="M328.968 60.176l10.564-6.352"/>
      <path d="M352.21 53.824l14.79 8.47v4.235c0 3.507-2.113 6.353-4.226 6.353h-12.677"/>
      <g>
        <path d="M246.565 42.176c0 7.412 4.147 13.765 10.564 13.765s10.565-6.353 10.565-13.765c0-7.411-2.113-11.647-10.565-11.647s-10.564 4.236-10.564 11.647z"/>
        <path d="M274.032 60.176l-10.564-6.352"/>
        <path d="M250.79 53.824L236 62.294v4.235c0 3.507 2.113 6.353 4.226 6.353h12.677"/>
      </g>
      <g>
        <path d="M255.016 111V91.941c0-21.176 14.79-19.059 29.58-27.53"/>
        <path d="M318.403 64.412c14.79 8.47 29.58 6.353 29.58 27.53V111"/>
        <path d="M309.952 72.882l-8.452-4.235-8.452 4.235-8.451-8.47 4.226-6.353 12.677 2.117 12.677-2.117 4.226 6.353z"/>
        <path d="M312.065 49.588v8.47"/>
        <path d="M290.935 58.059v-8.47"/>
        <path d="M299.387 87.706h4.226"/>
        <path d="M299.387 79.235h4.226"/>
        <path d="M320.516 22.059C320.516 9.194 314.336 3 301.5 3c-12.836 0-19.016 6.194-19.016 19.059v8.47c2.113 14.824 8.451 19.06 8.451 19.06 4.226 2.117 10.565 2.117 10.565 2.117s6.339 0 10.565-2.118c0 0 6.338-4.235 8.451-19.059v-8.47z"/>
        <path d="M282.484 22.059l8.451-4.235 10.565 4.235 10.565 4.235 8.451-4.235"/>
        <path d="M271.92 111V94.059"/>
        <path d="M331.08 111V94.059"/>
      </g>
    </g>
    <g stroke="#979797" id="technology">
      <path d="M571.965 496.333l12.8-121.78c.68-6.47-4.025-12.263-10.51-12.945l-61.053-6.417c-6.486-.681-12.292 4.008-12.972 10.476l-12.8 121.78c-.68 6.47 4.025 12.263 10.51 12.945l61.053 6.417c6.486.681 12.292-4.008 12.972-10.476z"/>
      <path d="M508.008 377.772l66.633 7.004-10.767 102.435-66.633-7.003z"/>
      <path d="M523.938 494.074l8.95.941"/>
      <path d="M532.032 369.237l-4.973-.523"/>
      <path d="M536.01 369.655l23.868 2.508"/>
      <path d="M510.534 468.534l4.973.522"/>
      <path d="M520.48 469.579l4.972.522"/>
      <path d="M528.436 470.415l4.972.523"/>
      <path d="M538.381 471.46l4.973.523"/>
      <path d="M547.332 472.401l4.972.523"/>
      <path d="M518.374 393.944l4.973.523"/>
      <path d="M528.32 394.99l4.972.522"/>
      <path d="M536.275 395.826l4.973.523"/>
      <path d="M546.22 396.871l4.973.523"/>
      <path d="M555.171 397.812l4.973.523"/>
      <path d="M517.224 404.884l4.973.523"/>
      <path d="M527.17 405.93l4.972.522"/>
      <path d="M535.126 406.766l4.972.522"/>
      <path d="M545.07 407.81l4.973.524"/>
      <path d="M554.022 408.752l4.972.522"/>
      <path d="M515.97 416.818l4.972.523"/>
      <path d="M525.915 417.864l4.973.522"/>
      <path d="M533.871 418.7l4.973.523"/>
      <path d="M543.816 419.745l4.973.523"/>
      <path d="M552.767 420.686l4.973.523"/>
      <path d="M514.82 427.758l4.973.523"/>
      <path d="M524.765 428.803l4.973.523"/>
      <path d="M532.721 429.64l4.973.522"/>
      <path d="M542.667 430.685l4.972.523"/>
      <path d="M551.617 431.626l4.973.522"/>
      <path d="M513.461 440.687l4.973.523"/>
      <path d="M523.406 441.732l4.973.523"/>
      <path d="M531.363 442.568l4.972.523"/>
    </g>
    <path id="line-1" fill-rule="nonzero" stroke="#8BC53F" d="M226.414 62.169C166.247 82.748 120.14 118.356 88.096 168.995 56.051 219.633 45.15 279.325 55.39 348.072"/>
    <path id="line-3" fill-rule="nonzero" stroke="#8BC53F" d="M382.106 63.828c57.953 23.476 102.372 59.07 133.257 106.78 30.886 47.71 41.499 106.568 31.84 176.574"/>
    <path id="line-2" fill-rule="nonzero" stroke="#8BC53F" d="M477.745 478.46s-66.127 72.4-177.855 72.4c-66.02 0-125.305-24.753-177.856-74.258"/>
    <g id="nature" stroke="#A0A0A0" stroke-linejoin="round">
      <path d="M90.84 458.453V479"/>
      <path d="M99.96 451.604V479"/>
      <path d="M84 369.415L95.4 358l29.64 29.68h-13.68l20.52 20.546h-15.96l22.8 22.83h-18.24L141 451.605h-29.64"/>
      <path d="M53.4 458.453V479"/>
      <path d="M62.6 451.604V479"/>
      <path d="M74.1 387.68l20.7 20.546H78.7l23 22.83H83.3l20.7 20.548H12l20.7-20.547H14.3l23-22.83H21.2l20.7-20.548H28.1L58 358l29.9 29.68z"/>
      <path d="M58 406v4"/>
      <path d="M58 428v4"/>
      <path d="M58 386v4"/>
    </g>
  </g>
</svg>