<svg xmlns="http://www.w3.org/2000/svg" viewBox="0 0 133 109">
  <g fill="none" fill-rule="evenodd" stroke="#979797" stroke-width="2">
    <path d="M121.435 40.176c0 7.412-4.147 13.765-10.564 13.765s-10.565-6.353-10.565-13.765c0-7.411 2.113-11.647 10.565-11.647s10.564 4.236 10.564 11.647zM93.968 58.176l10.564-6.352"/>
    <path d="M117.21 51.824l14.79 8.47v4.235c0 3.507-2.113 6.353-4.226 6.353h-12.677"/>
    <g>
      <path d="M11.565 40.176c0 7.412 4.147 13.765 10.564 13.765s10.565-6.353 10.565-13.765c0-7.411-2.113-11.647-10.565-11.647s-10.564 4.236-10.564 11.647zM39.032 58.176l-10.564-6.352"/>
      <path d="M15.79 51.824L1 60.294v4.235c0 3.507 2.113 6.353 4.226 6.353h12.677"/>
    </g>
    <g>
      <path d="M20.016 109V89.941c0-21.176 14.79-19.059 29.58-27.53M83.403 62.412c14.79 8.47 29.58 6.353 29.58 27.53V109M74.952 70.882L66.5 66.647l-8.452 4.235-8.451-8.47 4.226-6.353L66.5 58.176l12.677-2.117 4.226 6.353zM77.065 47.588v8.47M55.935 56.059v-8.47M64.387 85.706h4.226M64.387 77.235h4.226M85.516 20.059C85.516 7.194 79.336 1 66.5 1 53.664 1 47.484 7.194 47.484 20.059v8.47c2.113 14.824 8.451 19.06 8.451 19.06 4.226 2.117 10.565 2.117 10.565 2.117s6.339 0 10.565-2.118c0 0 6.338-4.235 8.451-19.059v-8.47z"/>
      <path d="M47.484 20.059l8.451-4.235L66.5 20.059l10.565 4.235 8.451-4.235M36.92 109V92.059M96.08 109V92.059"/>
    </g>
  </g>
</svg>