<?xml version="1.0" encoding="UTF-8"?>
<svg width="131px" height="122px" viewBox="0 0 131 122" version="1.1" xmlns="http://www.w3.org/2000/svg" xmlns:xlink="http://www.w3.org/1999/xlink">
    <!-- Generator: Sketch 51.2 (57519) - http://www.bohemiancoding.com/sketch -->
    <title>forest</title>
    <desc>Created with Sketch.</desc>
    <defs></defs>
    <g id="Page-1" stroke="none" stroke-width="1" fill="none" fill-rule="evenodd" stroke-linejoin="round">
        <g id="MYCELINET" transform="translate(-117.000000, -383.000000)" stroke="#A0A0A0" stroke-width="2">
            <g id="forest" transform="translate(118.000000, 384.000000)">
                <g id="Group" transform="translate(72.000000, 0.000000)">
                    <path d="M6.84,100.45283 L6.84,121" id="Shape"></path>
                    <path d="M15.96,93.6037736 L15.96,121" id="Shape"></path>
                    <polyline id="Shape" points="0 11.4150943 11.4 0 41.04 29.6792453 27.36 29.6792453 47.88 50.2264151 31.92 50.2264151 54.72 73.0566038 36.48 73.0566038 57 93.6037736 27.36 93.6037736"></polyline>
                </g>
                <g id="Group">
                    <path d="M41.4,100.45283 L41.4,121" id="Shape"></path>
                    <path d="M50.6,93.6037736 L50.6,121" id="Shape"></path>
                    <polygon id="Shape" points="62.1 29.6792453 82.8 50.2264151 66.7 50.2264151 89.7 73.0566038 71.3 73.0566038 92 93.6037736 0 93.6037736 20.7 73.0566038 2.3 73.0566038 25.3 50.2264151 9.2 50.2264151 29.9 29.6792453 16.1 29.6792453 46 0 75.9 29.6792453"></polygon>
                </g>
                <path d="M46,48 L46,52" id="Shape"></path>
                <path d="M46,70 L46,74" id="Shape"></path>
                <path d="M46,28 L46,32" id="Shape"></path>
            </g>
        </g>
    </g>
</svg>