<svg xmlns="http://www.w3.org/2000/svg" viewBox="0 0 1024 605">
  <g fill="none" fill-rule="evenodd">
    <g fill-rule="nonzero">
      <g transform="translate(401 240)">
        <path fill="#FAFAFA" stroke="#A0A0A0" stroke-width="2" d="M240 51v186c-.643 27.66-54.122 50-120 50S.643 264.66.006 237L0 51c.002-.166 0-.333 0-.5C0 22.61 53.726 0 120 0s120 22.61 120 50.5c0 .167-.002.334-.006.5z"/>
        <ellipse cx="120" cy="50.5" stroke="#A0A0A0" stroke-width="2" rx="120" ry="50.5"/>
        <ellipse cx="120" cy="50.5" stroke="#A0A0A0" stroke-width="2" rx="101" ry="42.5"/>
        <g stroke="#A0A0A0">
          <path d="M118.5 286.5h9V278a4.5 4.5 0 0 0-9 0v8.5z"/>
          <path d="M177.45 280.221l8.733-2.177-2.057-8.248a4.5 4.5 0 1 0-8.732 2.177l2.056 8.248z"/>
          <path d="M149.17 285.232l8.913-1.253-1.183-8.417a4.5 4.5 0 1 0-8.913 1.253l1.183 8.417z"/>
          <path d="M203.49 272.03l8.285-3.517-3.322-7.824a4.5 4.5 0 1 0-8.284 3.516l3.321 7.825z"/>
          <path d="M226.017 259.839l6.474-6.252-5.905-6.114a4.5 4.5 0 0 0-6.474 6.252l5.905 6.114z"/>
          <g>
            <path d="M63.55 280.221l-8.733-2.177 2.057-8.248a4.5 4.5 0 1 1 8.732 2.177l-2.056 8.248z"/>
            <path d="M91.83 285.232l-8.913-1.253 1.183-8.417a4.5 4.5 0 1 1 8.913 1.253l-1.183 8.417z"/>
            <path d="M37.51 272.03l-8.285-3.517 3.322-7.824a4.5 4.5 0 1 1 8.284 3.516l-3.321 7.825z"/>
            <path d="M14.983 259.839l-6.474-6.252 5.905-6.114a4.5 4.5 0 0 1 6.474 6.252l-5.905 6.114z"/>
          </g>
        </g>
        <g opacity=".811" transform="translate(226 168)">
          <circle cx="4" cy="30" r="4" fill="#737C68"/>
          <circle cx="4" cy="17" r="4" fill="#887E00"/>
          <circle cx="4" cy="4" r="4" fill="#77000F"/>
        </g>
      </g>
      <ellipse cx="101" cy="42.5" fill="#D5BA9D" fill-opacity=".228" rx="101" ry="42.5" transform="translate(420 248)"/>
      <g stroke-linecap="round" stroke-linejoin="bevel">
        <g stroke-width="2">
          <path fill="#B58F60" stroke="#B58F60" d="M573.94 230.746c-9.188-1.298-16.012-3.079-20.474-5.342-6.693-3.395-15.317-9.654-15.703-13.564-.385-3.91 3.228-16.984 12.029-23.378 8.8-6.394 7.908-6.961 22.063-8.221 14.155-1.26 24.854 3.153 37.833 2.068s24.87 19.42 27.266 25.519c2.396 6.1-1.176 25.385-3.894 27.71-2.72 2.324-3.979 2.079-13.162 2.366-6.123.191-13.164-.483-21.123-2.023"/>
          <path fill="#FBF9F7" stroke="#B58F60" d="M575.843 221.77a89.062 89.062 0 0 1-2.793 25.148c-3.194 12.384-6.088 11.977-8.525 23.258-2.436 11.281-3.675 19.625-3.362 23.925.313 4.3 6.308 6.18 14.68 7.357 8.373 1.177 14.75-.813 16.83-5.449 2.079-4.636-.589-8.588.572-27.114.774-12.352 3.392-26.116 7.854-41.294-3.68.918-8.11-.007-13.29-2.773-5.18-2.767-9.168-3.786-11.966-3.058z"/>
          <path stroke="#FBF9F7" d="M548.422 214.22c6.182 4.42 11.078 7.086 14.688 7.995 5.414 1.364 9.46-1.153 16.27-.196 6.808.957 7.264 4.112 14.867 5.538 5.068.95 12.127 1.357 21.178 1.22"/>
          <path stroke="#FBF9F7" d="M536.93 211.651c5.446-3.232 9.428-4.67 11.947-4.316 3.78.53 9.433 5.211 15.86 6.114 6.426.903 15.238-1.744 21.302-.892s10.597 7.664 14.534 8.218c3.938.553 12.408-1.093 17.956 2.523 1.974 1.287 3.226 3.615 5.397 5.708 1.264 1.218 4.25 3.694 8.959 7.426"/>
        </g>
        <g stroke-width="2">
          <path fill="#B58F60" stroke="#B58F60" d="M451.813 205.322c-10.078 1.59-17.826 1.917-23.244.982-8.127-1.402-19.202-5.177-20.86-9.139-1.658-3.962 3.806-15.527 5.413-24.125 1.606-8.597 5.254-14.389 20.908-21.675 10.433-4.856 15.571-5.315 22.922-4.859 7.755.482 15.81 2.712 22.64-.005 13.302-5.294 28.268 13.506 32.102 20.694 3.835 7.188 5.945 20.883 3.83 24.183-2.114 3.3-3.517 3.448-13.083 6.692-6.378 2.162-13.999 3.715-22.863 4.657"/>
          <path stroke="#FBF9F7" d="M406.726 196.985c6.33-5.073 10.89-7.83 13.68-8.272 4.185-.663 8.161-5.452 17.542-5.409 9.38.043 11.728-3.143 23.65-1.49 11.92 1.653 25.254-1.995 32.335.147 2.52.763 7.697 1.382 10.691 2.966 1.743.922 5.458 3.25 11.142 6.985"/>
          <path fill="#FBF9F7" stroke="#B58F60" d="M451.303 195.288c5.083 19.958 7.908 35.142 8.475 45.551.852 15.614-1.284 13.922-.007 27.985 1.278 14.063 2.596 11.143 4.402 16.08 1.806 4.937 4.776 4.533 14.071 3.06 9.295-1.472 9.918-3.827 10.538-9.973.62-6.147-5.411-15.028-10.526-37.156-3.41-14.753-3.157-30.235.76-46.449-2.556-.887-7.504-1.206-14.843-.956-7.34.25-11.63.87-12.87 1.858z"/>
          <path stroke="#FBF9F7" d="M422.663 194.088c5.515 2.02 10.32 2.925 14.414 2.717 6.142-.312 14.217-1.542 21.696-2.726 7.48-1.185 11.153.945 19.62-.005 5.644-.633 11.9-1.967 18.769-4.002"/>
        </g>
        <g stroke-width="2">
          <path fill="#B58F60" stroke="#B58F60" d="M498.354 242.821c-6.65 1.048-11.762 1.265-15.336.65-5.362-.921-12.669-3.405-13.762-6.014-1.093-2.608 1.723-10.792 3.576-15.889 1.853-5.097 1.857-12.4 13.7-15.447 11.844-3.047 17.692 1.868 26.47-1.621 8.779-3.489 22.34 8.466 24.87 13.2 2.528 4.732 3.918 13.75 2.522 15.925-1.396 2.173-2.322 2.271-8.634 4.41-4.209 1.425-9.237 2.449-15.086 3.071"/>
          <path fill="#FBF9F7" stroke="#B58F60" d="M498.393 236.11c2.727 8.995 4.22 16.565 4.481 22.71.39 9.217-.697 8.42-.01 16.717.688 8.295.484 10.549 1.619 13.447 1.134 2.897 4.12 2.663 10.254 1.692 6.133-.971 10.19-3.701 10.666-7.34.475-3.638-5.804-11.504-8.929-24.524-2.083-8.68-2.652-16.25-1.707-22.71-.3-.724-2.777-1.086-7.434-1.086"/>
          <path stroke="#FBF9F7" d="M479.123 235.428c3.639 1.329 6.809 1.924 9.51 1.787 4.053-.207 9.38-1.019 14.316-1.8 4.935-.782 7.358.62 12.945-.007 3.724-.419 7.852-1.298 12.384-2.64"/>
          <path stroke="#FBF9F7" d="M468.489 237.203c4.22-3.295 7.243-5.087 9.07-5.377 2.739-.433 5.355-3.482 11.49-3.486 6.135-.003 10.58.319 17.569-1.023 6.989-1.342 14.427-1.346 19.052-.01 1.645.475 5.03.85 6.983 1.845 1.137.579 3.862 2.163 8.175 4.753"/>
        </g>
        <g stroke-width="2">
          <path fill="#B58F60" stroke="#B58F60" d="M551.715 273.954c5.857-.004 10.28-.51 13.27-1.517 4.482-1.512 10.424-4.618 11.008-6.992.585-2.374-.296-8.376-5.236-13.074-4.94-4.698-5.139-9.329-13.878-11.329s-18.51 4.207-26.529 2.416c-8.02-1.79-13.985 10.853-16.019 14.401-2.034 3.548-1.495 12.263 0 13.93 1.496 1.665 2.305 1.624 8.021 2.595 3.811.648 8.273.842 13.384.583"/>
          <path fill="#FBF9F7" stroke="#B58F60" d="M550.768 268.233c-1.19 6.5-1.478 12.388-.865 17.666.92 7.917 2.038 9.042 2.577 16.213.538 7.172 2.194 8.996 1.614 11.622-.581 2.626-4.542 3.266-9.945 3.266-5.404 0-9.263-1.78-10.166-4.821-.904-3.04 3.835-10.615 4.748-22.146.609-7.687-.601-14.38-3.63-20.077"/>
          <path stroke="#FBF9F7" d="M567.542 266.566c-3.144 1.587-5.887 2.505-8.228 2.752-3.511.372-5.824-1.528-10.172-1.528-4.348 0-4.912 1.903-9.798 2.123-3.258.146-7.715-.214-13.371-1.081"/>
          <path stroke="#FBF9F7" d="M576.68 265.23c-4.117-2.312-6.98-3.468-8.589-3.468-2.413 0-6.245-1.421-10.35-1.421-4.104 0-4.834 3.014-8.707 3.014-3.872 0-11.2 1.23-13.715 1.23-2.514 0-7.448-1.12-11.24.645-1.35.628-2.34 1.967-3.883 3.079-.898.648-2.996 1.941-6.291 3.881"/>
        </g>
        <path fill="#B58F60" stroke="#B58F60" stroke-width="2" d="M482.187 275.123c-4.36-.004-7.652-.385-9.876-1.145-3.336-1.14-7.758-3.482-8.193-5.272-.435-1.79.22-6.317 3.897-9.86 3.677-3.542 3.824-7.034 10.328-8.543 6.504-1.508 13.776 3.173 19.744 1.822 5.969-1.35 10.408 8.185 11.922 10.86 1.514 2.675 1.113 9.248 0 10.505-1.113 1.256-1.715 1.225-5.97 1.957-2.836.488-6.156.635-9.96.44"/>
        <path fill="#FBF9F7" stroke="#B58F60" stroke-width="2" d="M482.577 270.248c1.076 5.313 1.383 9.983.92 14.012-.696 6.043-1.541 6.902-1.948 12.376-.408 5.474-1.66 6.867-1.22 8.871.438 2.004 3.433 2.493 7.518 2.493s7.002-1.36 7.685-3.68c.683-2.32-2.9-8.102-3.59-16.904-.46-5.868.511-11.23 2.914-16.086-2.517-.721-4.938-1.082-7.263-1.082"/>
        <path stroke="#FBF9F7" d="M469.982 269.045c2.327 1.22 4.357 1.925 6.089 2.115 2.598.286 4.31-1.175 7.528-1.175s3.635 1.463 7.251 1.632c2.411.113 5.71-.164 9.895-.83"/>
        <path stroke="#FBF9F7" d="M463.564 269.045c3.237-2.16 5.458-3.24 6.661-3.24 1.806 0 4.673-1.089 7.743-1.089 3.07 0 3.617 2.307 6.514 2.307 2.897 0 8.38.94 10.26.94 1.881 0 5.572-.856 8.41.494 1.01.48 1.75 1.505 2.904 2.356.672.495 2.355 1.47 5.048 2.926"/>
        <g>
          <path fill="#B58F60" stroke="#B58F60" stroke-width="2" d="M511.133 299.276c-2.427-.193-4.397-.605-5.912-1.237-2.273-.948-5.245-2.779-5.462-4.034-.217-1.255 2.15-4.23 3.194-6.605s2.494-3.804 7.542-4.862c3.363-.705 4.89-.494 7 .13 2.226.657 4.422 1.84 6.593 1.51 4.229-.639 7.326 5.791 7.96 8.123.635 2.332.332 6.428-.505 7.24-.837.811-1.256.76-4.26 1.058-2.001.198-4.496.11-7.483-.262"/>
          <path fill="#FBF9F7" stroke="#B58F60" stroke-width="2" d="M513.48 296.99c-.714 7.507-1.338 12.782-1.87 15.827-.8 4.566-.925 1.216-1.496 5.363-.57 4.146.009 3.39.204 4.937.194 1.547 1.087 1.629 3.892 1.825 2.805.196 3.145-.443 3.737-2.176.593-1.734-.568-4.702-.573-11.434a79.404 79.404 0 0 1 1.113-13.341c.88-.778.024-1.406-2.569-1.887"/>
          <path stroke="#FBF9F7" d="M504.761 294.589c1.176.637 2.368 1.062 3.574 1.275 1.81.32 4.243.505 6.5.663 2.258.158 3.185 1.019 5.714 1.31 1.686.195 3.32.347 4.901.457"/>
          <path stroke="#FBF9F7" d="M499.028 294.153c2.476-1.242 4.132-1.833 4.967-1.775 1.253.088 2.718-.984 5.426-.363 2.708.62 3.596-.112 6.932 1.121 3.336 1.233 7.43 1.086 9.334 2.14.678.376 2.133.884 2.894 1.518.443.37 1.625 1.424 3.545 3.165"/>
        </g>
      </g>
    </g>
    <g fill="#66666E">
      <g fill-rule="nonzero">
        <path d="M138.433 157.96c.306 4.383 5.03 7.668 10.533 7.283 5.504-.385 9.725-4.295 9.418-8.678-.307-4.384-5.03-7.668-10.534-7.283-5.503.385-9.724 4.294-9.417 8.678zm10.376 5.035c-4.242.296-7.863-2.048-8.083-5.196 1.27.025 1.989.426 2.815.707 1.186.482 2.494 1.068 4.902.9 2.408-.169 3.622-.931 4.73-1.573.885-.514 1.542-1.012 3.025-1.228.12 3.38-3.146 6.093-7.389 6.39zm6.56-8.366c-1.59.337-2.591.86-3.469 1.485-.993.635-1.764 1.14-3.598 1.269-1.835.128-2.67-.266-3.74-.755-.834-.394-1.906-.884-3.404-.892.997-2.216 3.647-3.87 6.857-4.094 3.203-.337 6.057.932 7.353 2.987z"/>
        <path d="M150.524 129.096c-1.467 1.688-1.993 3.878-1.594 6.342.39 2.352 1.788 4.52 3.716 6.198 4.099 3.565 9.772 3.735 12.706.357 1.257-1.447 1.807-3.298 1.665-5.327-.181-2.593-1.497-5.22-3.788-7.213-4.098-3.565-9.771-3.735-12.705-.357zm3.581 10.738c-1.567-1.363-2.594-3.104-2.946-4.892l-.055-.789c-.094-1.353.27-2.624 1.108-3.59.851.847 1.132 1.62 1.42 2.507.425 1.216.97 2.538 2.658 4.006 1.688 1.468 3.184 1.816 4.334 2.076.917.162 1.842.438 2.92 1.269-1.984 2.404-6.304 2.14-9.439-.587zm10.544-1.417c-1.31-.928-2.46-1.187-3.499-1.454-1.037-.268-2.067-.422-3.393-1.576-1.326-1.153-1.727-2.032-2.031-3.143a8.546 8.546 0 0 0-1.686-3.054c2.206-.834 5.304-.258 7.715 1.84 2.418 2.21 3.412 5.085 2.894 7.387z"/>
        <path d="M139.021 123.885c-3.38-2.935-8.982-1.977-12.55 2.124-3.569 4.102-3.739 9.778-.359 12.714 3.38 2.935 8.983 1.977 12.551-2.124 1.994-2.292 2.933-5.077 2.752-7.67-.142-2.029-.945-3.786-2.394-5.044zm-10.748 3.584c2.73-3.136 6.865-3.992 9.279-1.895-.848.852-1.622 1.133-2.509 1.422-1.217.425-2.54.97-4.009 2.66-1.47 1.688-1.818 3.185-2.078 4.336-.162.918-.438 1.843-1.27 2.921-.965-.839-1.503-2.047-1.606-3.513-.239-1.796.506-4.114 2.193-5.93zm8.7 7.662c-2.1 2.413-4.978 3.407-7.282 2.888.93-1.31 1.189-2.462 1.456-3.5.268-1.039.423-2.069 1.577-3.396 1.155-1.327 2.034-1.728 3.146-2.033a8.554 8.554 0 0 0 3.057-1.686c.835 2.207.145 5.314-1.954 7.727z"/>
        <path d="M174.49 171.428c3.362 2.937 8.932 1.98 12.479-2.12 1.669-1.928 2.633-4.262 2.804-6.653-.024-.338.065-.684.041-1.022-.142-2.03-.941-3.786-2.382-5.045-3.362-2.937-8.932-1.981-12.478 2.119-3.659 4.107-3.826 9.784-.464 12.72zm13.015-8.954c-.098 1.82-.87 3.686-2.225 5.254-2.086 2.411-4.948 3.404-7.239 2.885.923-1.31 1.18-2.462 1.446-3.5.266-1.038.42-2.068 1.567-3.395 1.147-1.326 2.021-1.727 3.127-2.031a8.482 8.482 0 0 0 3.039-1.685c.167.78.342 1.675.285 2.472zm-1.645-4.19c-.843.852-1.612 1.132-2.494 1.42-1.21.425-2.525.97-3.985 2.658-1.46 1.689-1.92 3.193-2.177 4.344-.161.918-.435 1.843-1.261 2.92-.96-.838-1.496-2.047-1.599-3.513-.134-1.916.606-4.234 2.17-6.043 2.72-3.022 6.944-3.884 9.346-1.786z"/>
        <path d="M180.083 118.272c-1.676 1.928-2.646 4.258-2.818 6.645-.052 2.493.773 4.584 2.46 6.05 3.376 2.931 8.97 1.975 12.533-2.12 1.99-2.29 2.92-5.182 2.748-7.659-.134-1.913-.944-3.78-2.39-5.036-1.688-1.466-3.876-1.992-6.339-1.593-2.342.503-4.517 1.786-6.194 3.713zm10.375 9.117c-2.096 2.408-4.97 3.401-7.271 2.883.927-1.309 1.187-2.458 1.454-3.495.267-1.037.421-2.065 1.574-3.39 1.153-1.325 2.03-1.726 3.141-2.03a8.541 8.541 0 0 0 3.053-1.684c.841 2.317.144 5.307-1.951 7.716zm.578-9.543c-.847.851-1.62 1.131-2.505 1.42-1.216.424-2.536.969-4.003 2.655-1.468 1.686-1.816 3.181-2.075 4.33-.163.917-.438 1.841-1.268 2.917-.964-.837-1.502-2.044-1.604-3.508l-.055-.788c.1-1.816.875-3.68 2.237-5.246 1.362-1.566 3.102-2.593 4.889-2.944 1.69-.118 3.299.222 4.384 1.164z"/>
        <path d="M169.86 105.64c.306 4.384 5.03 7.668 10.533 7.283 5.504-.385 9.724-4.294 9.418-8.678-.307-4.384-5.03-7.668-10.534-7.283-5.504.385-9.724 4.294-9.417 8.678zm10.376 5.035c-3.21.224-6.064-1.044-7.36-3.1 1.59-.337 2.59-.859 3.468-1.485.992-.634 1.764-1.14 3.598-1.268 1.835-.128 2.669.265 3.74.755.834.394 1.905.883 3.404.892-.99 2.328-3.64 3.981-6.85 4.206zm7.274-6.382c-1.27-.024-1.989-.426-2.815-.707-1.186-.482-2.494-1.068-4.902-.9-2.408.169-3.622.931-4.73 1.574-.885.513-1.542 1.011-3.025 1.228-.22-3.148 3.04-5.973 7.282-6.27 4.242-.297 7.855 1.936 8.19 5.075z"/>
        <path d="M137.624 98.409c-1.486 2.197-2.123 4.8-1.837 7.222.295 2.537 1.489 4.547 3.334 5.813 3.915 2.4 9.411.62 12.483-4.013 1.377-2.073 2.023-4.56 1.861-6.874l-.024-.347c-.295-2.538-1.489-4.547-3.334-5.813-3.923-2.517-9.528-.613-12.483 4.012zm13.486 1.964c.246 1.843-.315 3.86-1.476 5.685-2.329 3.535-6.435 5.1-9.252 3.321.75-.983 1.542-1.387 2.333-1.791 1.125-.66 2.367-1.328 3.744-3.401 1.26-2.065 1.397-3.47 1.54-4.76.044-1.049.104-1.867.831-3.197 1.238.96 2.042 2.415 2.28 4.143zm-4.55-4.798c-.711 1.561-.871 2.619-.915 3.668-.036 1.166-.204 2.108-1.148 3.685-.943 1.578-1.851 1.99-2.867 2.527-.9.528-1.8 1.056-2.776 2.17a5.361 5.361 0 0 1-.753-2.389l-.016-.231c-.13-1.852.44-3.752 1.492-5.454 1.695-2.56 4.511-4.152 6.982-3.976z"/>
      </g>
      <text font-family="SkippySharp, Skippy Sharp" font-size="20" letter-spacing="1.54" transform="translate(71 177)">
        <tspan x="5.94" y="21">grow gourmet mushrooms</tspan> <tspan x=".49" y="48">from used coffee grounds</tspan>
      </text>
    </g>
    <g fill="#66666E">
      <g fill-rule="nonzero">
        <path d="M799 168.4c1.3-1.2 2.2-3.5 2.9-5.7l.1-.4c.2-.7.1-1.5-.1-3.2-.2-1.9-.6-5 0-6.3 1.5-3 6.3-18.1 6.3-18.2.1-.4.9-.5 1.4-.5h.4c1.2.4 2.1 1.1 2.7 2.2 1.3 2.5.9 6.8-1 12.3-1.1 3.1-.9 4.8-.9 5.1 0 .3.2.6.4.8 5.9 7.2 2.5 19.3 2.5 19.4-.3.9.3 1.8 1.1 2.1.2 0 .3.1.5.1.7 0 1.4-.5 1.6-1.2 0-.1.1-.4.3-1h19c-6.6 8.8-16.5 7.4-16.9 7.4-.6-.1-1.1.1-1.5.5l-4.6 5c-.6.7-.6 1.8.1 2.4.3.3.7.4 1.1.4.5 0 .9-.2 1.2-.6l4-4.4c3.2.2 14.1 0 20.6-10.8h2.4c2.4 0 4.4-2 4.4-4.4V164l4.7-4.7c.9-.9 1.5-2.2 1.5-3.5 0-1.3-.5-2.6-1.5-3.5l-.1-.3c-.4-.4-.9-.7-1.4-.9l1.7-1.7c.9-.9 1.5-2.2 1.5-3.5 0-1.3-.5-2.6-1.5-3.5l-.3-.4c-.4-.4-.9-.7-1.4-.9l1.7-1.7c.9-.9 1.5-2.2 1.5-3.5 0-1.3-.5-2.5-1.4-3.4l3-3c2.1-2.1 2.1-5.5 0-7.6l-.3-.3c-2-2-5.3-2.1-7.4-.2v-7.8c0-2.4-2-4.4-4.4-4.4h-30.1c-2.4 0-4.4 2-4.4 4.4V131c-1.4.3-2.8 1.1-3.3 2.8-1.2 3.9-5 15.4-6.1 17.7-1.1 2.2-.7 5.7-.3 8.2.1.7.2 1.5.2 1.9l-.1.3c-.3.9-1.1 3.5-2 4.2-.7.6-.7 1.7-.1 2.4.6.4 1.6.5 2.3-.1zm15.4-15.6c0-.5.2-1.5.7-3.1 2.2-6.4 2.5-11.6.8-14.9-.9-1.7-2.3-3-4.1-3.7v-11.4h32.1V132.6l-5.5 5.5c-.3.3-.5.7-.5 1.2 0 1.6.8 4.5 3.4 5.9l-2.9 2.9c-.3.3-.5.7-.5 1.2 0 1.6.8 4.5 3.4 5.9l-2.9 2.9c-.3.3-.5.7-.5 1.2 0 .4 0 .9.2 1.4h-20.3c-.5-2.7-1.6-5.5-3.4-7.9zm34.8-18.4l.3.3c.3.3.5.7.5 1.2s-.2.9-.5 1.2l-4.9 4.9-.1.1-.6.6c-1.9-.4-2.4-1.7-2.6-2.6l5.6-5.6c.6-.7 1.7-.7 2.3-.1zm-6.3 36.1H818c.2-1.8.4-4 .2-6.3h21.6c.9.9 2.2 1.6 4.1 1.9v3.5c0 .4-.5.9-1 .9zm6.3-16.1l.3.3c.3.3.5.7.5 1.2s-.2.9-.5 1.2l-5.6 5.6c-.9-.2-1.6-.6-2-1.1-.4-.5-.6-1-.7-1.5l4.3-4.3.1-.1 1.3-1.3c.8-.7 1.7-.6 2.3 0zm0-10l.3.3c.3.3.5.7.5 1.2 0 .4-.2.9-.5 1.2l-4.9 4.9-.1.1-.6.6c-1.9-.4-2.4-1.7-2.6-2.6l4.3-4.3.1-.1 1.3-1.3c.7-.6 1.6-.6 2.2 0zm.2-20.5c.8-.8 2.1-.8 2.8 0l.3.3c.8.8.8 2.1 0 2.8l-3.5 3.6c-.6-.1-1.2-.1-1.7 0V126l2.1-2.1zm-36.6-11.4h30.1c.5 0 1 .5 1 1v2.9h-32.1v-2.9c0-.6.4-1 1-1z"/>
        <path d="M829.8 165.5c-1.1 0-2 .9-2 2s.9 2 2 2 2-.9 2-2-.9-2-2-2z"/>
      </g>
      <text font-family="SkippySharp, Skippy Sharp" font-size="20" letter-spacing="1.54" transform="translate(764 201)">
        <tspan x=".02" y="21">monitor your kit</tspan> <tspan x="16.68" y="48">in real-time</tspan>
      </text>
    </g>
    <g fill="#66666E">
      <path fill-rule="nonzero" d="M250.502 458.352a1.702 1.702 0 0 0-2.325.623l-7.818 13.54h-7.21c-.812 0-1.561.433-1.966 1.136l-3.49 6.043h-13.522l-7.976-13.815c.055-.068.116-.13.162-.21l10.634-18.42h12.881l5.587 9.677a1.7 1.7 0 0 0 2.325.623 1.702 1.702 0 0 0 .623-2.325l-5.587-9.677 6.481-11.224h9.184a1.702 1.702 0 1 0 0-3.405H239.3l-6.807-11.791a2.27 2.27 0 0 0-1.966-1.135H217.17l-3.545-6.14a1.702 1.702 0 1 0-2.949 1.702l3.416 5.916-6.938 12.015a2.277 2.277 0 0 0 0 2.27l6.848 11.863-10.593 18.35c-.038.065-.062.132-.09.199h-15.84l-5.777-10.007 4.893-8.475a2.277 2.277 0 0 0 0-2.27l-4.646-8.048 4.53-7.848h5.17c.81 0 1.56-.432 1.965-1.135l2.879-4.987a2.277 2.277 0 0 0 0-2.27l-2.88-4.989a2.27 2.27 0 0 0-1.965-1.135h-5.76c-.81 0-1.56.433-1.965 1.135l-2.552 4.422h-6.99a1.702 1.702 0 1 0 0 3.404h6.99l2.193 3.797-4.413 7.643h-9.897c-.811 0-1.56.433-1.965 1.135l-4.797 8.31h-10.47a1.702 1.702 0 1 0 0 3.404h10.47l4.797 8.31a2.27 2.27 0 0 0 1.965 1.134h9.405l5.77 9.995-8.086 14.004h-9.236l-2.636-4.564a1.702 1.702 0 0 0-1.474-.851h-5.318l-4.428-7.675a1.702 1.702 0 1 0-2.949 1.702l4.453 7.711-2.612 4.525a1.697 1.697 0 0 0 0 1.702l2.73 4.728-4.646 8.045a1.702 1.702 0 0 0 2.949 1.703l4.738-8.207h5.084c.608 0 1.17-.325 1.474-.851l2.636-4.566h9.237l8.31 14.394a2.27 2.27 0 0 0 1.966 1.134h16.701l7.224 12.512a1.7 1.7 0 0 0 2.325.622 1.702 1.702 0 0 0 .623-2.325l-7.264-12.582 7.942-13.755h13.521l3.49 6.043a2.27 2.27 0 0 0 1.965 1.135h6.566l5.796 10.041a1.7 1.7 0 0 0 2.326.622 1.702 1.702 0 0 0 .623-2.325l-5.592-9.683 3.696-6.4a2.277 2.277 0 0 0 0-2.27l-3.372-5.84 7.933-13.743a1.703 1.703 0 0 0-.623-2.326zm-32.936-35.822h11.651l5.825 10.09-5.825 10.09h-11.651l-5.825-10.09 5.825-10.09zm-30.365-4.988h3.139l1.57 2.719-1.57 2.718h-3.14l-1.569-2.718 1.57-2.72zm-20.45 27.007l3.814-6.607h7.63l3.814 6.607-3.813 6.607h-7.631l-3.813-6.607zm-4.735 40.56h-4.287l-2.145-3.714 1.993-3.451c.069-.029.14-.048.207-.086.09-.053.17-.113.246-.177h3.986l2.117 3.664c0 .017-.005.032-.005.049s.005.033.005.049l-2.117 3.666zm40.57 8.977H187.93l-7.326-12.691 7.326-12.691h14.655l7.326 12.69-7.326 12.692zm29.367-12.691l2.506-4.34h5.013l2.505 4.34-2.505 4.34h-5.013l-2.506-4.34zm-36.694-8.94c-4.93 0-8.94 4.011-8.94 8.94 0 4.929 4.01 8.94 8.94 8.94s8.94-4.01 8.94-8.94-4.011-8.94-8.94-8.94zm0 15.61a6.678 6.678 0 0 1-6.67-6.67 6.677 6.677 0 0 1 6.67-6.67 6.678 6.678 0 0 1 6.67 6.67 6.678 6.678 0 0 1-6.67 6.67zm28.132-48.49c3.837 0 6.958-3.12 6.958-6.956 0-3.836-3.121-6.956-6.958-6.956a6.965 6.965 0 0 0-6.957 6.956 6.965 6.965 0 0 0 6.957 6.957zm0-11.644a4.694 4.694 0 0 1 4.688 4.687 4.694 4.694 0 0 1-4.688 4.687 4.693 4.693 0 0 1-4.687-4.687 4.692 4.692 0 0 1 4.687-4.687zm-49.01 12.83a3.792 3.792 0 0 0-3.788 3.787 3.792 3.792 0 0 0 3.788 3.787 3.791 3.791 0 0 0 3.787-3.787 3.791 3.791 0 0 0-3.787-3.787zm0 6.44a2.656 2.656 0 0 1-2.653-2.652 2.656 2.656 0 0 1 2.653-2.652 2.655 2.655 0 0 1 2.652 2.652 2.655 2.655 0 0 1-2.652 2.652z"/>
      <text font-family="SkippySharp, Skippy Sharp" font-size="20" letter-spacing="1.54" transform="translate(86 528)">
        <tspan x=".28" y="21">tap into fungal neural network</tspan>
      </text>
    </g>
    <text fill="#66666E" font-family="SkippySharp, Skippy Sharp" font-size="20" letter-spacing="1.54" transform="translate(725 518)">
      <tspan x="30.49" y="21">exchange tips, insights</tspan> <tspan x=".06" y="48">and harvest with local growers</tspan>
    </text>
    <g stroke="#66666E" stroke-linecap="round" stroke-linejoin="bevel" stroke-width="3">
      <path d="M849.815 405.711c0 6.885-3.861 12.786-9.835 12.786s-9.836-5.9-9.836-12.786c0-6.885 1.967-10.819 9.836-10.819 7.868 0 9.835 3.934 9.835 10.82z"/>
      <path d="M845.881 416.53l13.77 7.869v3.934c0 3.26-1.967 5.901-3.934 5.901h-31.474c-1.967 0-3.934-2.642-3.934-5.901v-3.934l13.77-7.869"/>
      <path d="M808.506 479.477c0 6.885-3.861 12.786-9.835 12.786s-9.836-5.901-9.836-12.786 1.968-10.819 9.836-10.819 9.835 3.934 9.835 10.82z"/>
      <path d="M804.572 490.296l13.77 7.869v3.934c0 3.26-1.967 5.901-3.934 5.901h-31.474c-1.967 0-3.934-2.642-3.934-5.901v-3.934l13.77-7.869"/>
      <path d="M890.14 479.477c0 6.885-3.86 12.786-9.835 12.786-5.974 0-9.835-5.901-9.835-12.786s1.967-10.819 9.835-10.819c7.869 0 9.836 3.934 9.836 10.82z"/>
      <path d="M886.206 490.296l13.77 7.869v3.934c0 3.26-1.967 5.901-3.934 5.901h-31.474c-1.967 0-3.934-2.642-3.934-5.901v-3.934l13.77-7.869"/>
      <path d="M839 444v20"/>
      <path d="M839 464l-20 16"/>
      <path d="M839 463l20 16"/>
    </g>
    <path stroke="#D6D6D6" d="M376.553 240.305L305 195"/>
    <path stroke="#D6D6D6" d="M364.387 432L305 456.928"/>
    <path stroke="#D6D6D6" d="M667 246.319L729.343 197"/>
    <path stroke="#D6D6D6" d="M674 434l70.037 19.278"/>
  </g>
</svg>